<?xml version="1.0" encoding="utf-8"?>
<!-- Generator: Adobe Illustrator 25.1.0, SVG Export Plug-In . SVG Version: 6.00 Build 0)  -->
<svg version="1.1" id="Capa_1" xmlns="http://www.w3.org/2000/svg" xmlns:xlink="http://www.w3.org/1999/xlink" x="0px" y="0px"
	 viewBox="0 50 595.3 400" style="enable-background:new 0 0 595.3 841.9;" xml:space="preserve">
<style type="text/css">
	.st0{fill:#576271;}
	.st1{fill:#DC0C1D;}
</style>
<g>
	<path class="st0" d="M197.1,95.6l112.1,1.3l-0.1,12.7l-98.4-1.1l-1,105.3l85.1,1l-0.1,12.7l-85.1-1l-1.2,91.6l-13.6-0.2L197.1,95.6
		z"/>
</g>
<g>
	<path class="st1" d="M303,96.6l61.7,0.8c32.7,0.4,56.9,25.2,56.5,65.5c-0.4,40.3-25,65.1-57.8,64.6l-50.2-0.7l-0.9,92.1l-11.5-0.2
		L303,96.6z M363.1,214.9c27.4,0.4,45.8-18.8,46.1-52.1c0.3-33.3-17.8-52.3-45.1-52.7l-49.6-0.7l-1,104.8L363.1,214.9z"/>
</g>
<g>
	<path d="M193.3,339.6h16.5c15.6,0,26.2,9.6,26.2,26.2c0,16.7-10.6,26.2-26.2,26.2h-16.5V339.6z M209.3,389.1
		c13.9,0,23.3-8.2,23.3-23.2c0-15-9.4-23.2-23.3-23.2h-12.7v46.5H209.3z"/>
	<path d="M263.1,339.6h3.2V374c0,9.9,6.4,16,16.3,16c9.9,0,16.4-6.1,16.4-16.1v-34.2h3.2v34.5c0,11.5-8,18.9-19.6,18.9
		c-11.5,0-19.6-7.3-19.6-18.9V339.6z"/>
	<path d="M358.1,374h-22.3l-6.8,18.1h-3.5l19.6-52.5h3.5l19.6,52.5h-3.5L358.1,374z M346.9,343.4c0,0-1.1,4-2,6.3l-8,21.3h20
		l-7.9-21.3c-0.8-2.3-2-6.3-2-6.3H346.9z"/>
	<path d="M392.8,339.6h3.2v49.5h25v3h-28.3V339.6z"/>
</g>
</svg>
