<?xml version="1.0" encoding="utf-8"?>
<!-- Generator: Adobe Illustrator 25.2.0, SVG Export Plug-In . SVG Version: 6.00 Build 0)  -->
<svg version="1.1" id="Слой_1" xmlns="http://www.w3.org/2000/svg" xmlns:xlink="http://www.w3.org/1999/xlink" x="0px" y="0px"
	 viewBox="0 0 400 400" style="enable-background:new 0 0 400 400;" xml:space="preserve">
<style type="text/css">
	.st0{fill:#55ACEE;}
	.st1{fill:#FFFFFF;}
</style>
<circle class="st0" cx="200" cy="199.9" r="193"/>
<path class="st1" d="M356.4,118.1c-11,4.9-22.7,8.1-34.6,9.5c12.6-7.5,22-19.4,26.5-33.3c-11.8,7-24.8,12-38.3,14.6
	c-22.8-24.2-61-25.4-85.3-2.5c-15.6,14.7-22.2,36.6-17.4,57.5c-48.5-2.4-93.6-25.3-124.3-63c-16,27.5-7.8,62.8,18.7,80.5
	c-9.6-0.3-18.9-2.9-27.3-7.5c0,0.2,0,0.5,0,0.8c0,28.7,20.2,53.4,48.4,59.1c-8.9,2.4-18.2,2.8-27.2,1.1
	c7.9,24.6,30.5,41.4,56.3,41.9c-21.4,16.8-47.7,25.8-74.9,25.8c-4.8,0-9.6-0.3-14.4-0.8c27.6,17.7,59.6,27.1,92.4,27.1
	c110.9,0,171.5-91.8,171.5-171.5c0-2.6-0.1-5.2-0.2-7.8C338.2,140.8,348.4,130.2,356.4,118.1z"/>
</svg>
