<?xml version="1.0" encoding="utf-8"?>
<!-- Generator: Adobe Illustrator 25.2.0, SVG Export Plug-In . SVG Version: 6.00 Build 0)  -->
<svg version="1.1" id="Слой_1" xmlns="http://www.w3.org/2000/svg" xmlns:xlink="http://www.w3.org/1999/xlink" x="0px" y="0px"
	 viewBox="0 0 400 400" style="enable-background:new 0 0 400 400;" xml:space="preserve">
<style type="text/css">
	.st0{fill:#787878;}
	.st1{opacity:0.12;enable-background:new    ;}
	.st2{fill:#FFFFFF;}
</style>
<g id="Background">
	<path class="st0" d="M0,200C0,89.5,89.5,0,200,0s200,89.5,200,200s-89.5,200-200,200S0,310.5,0,200"/>
</g>
<g id="Logo">
	<path id="The_Sharpness" class="st1" d="M169.6,158.9l63.9,42.7l9-4.6L169.6,158.9z"/>
	<g id="Lozenge">
		<g>
			<path class="st2" d="M331.2,145.1c0,0-2.6-18.6-10.7-26.8c-10.2-10.8-21.8-10.8-27-11.4c-37.8-2.7-94.4-2.7-94.4-2.7H199
				c0,0-56.6,0-94.4,2.7c-5.3,0.6-16.8,0.7-27,11.4c-8.1,8.2-10.7,26.8-10.7,26.8s-2.7,21.8-2.7,43.7v20.5c0,21.8,2.7,43.7,2.7,43.7
				s2.6,18.6,10.7,26.8c10.3,10.8,23.7,10.4,29.7,11.5c21.6,2.1,91.7,2.7,91.7,2.7s56.7-0.1,94.5-2.8c5.3-0.6,16.8-0.7,27-11.4
				c8.1-8.2,10.7-26.8,10.7-26.8s2.7-21.8,2.7-43.7v-20.5C333.9,166.9,331.2,145.1,331.2,145.1z M171.1,234v-75.8l72.9,38L171.1,234
				z"/>
		</g>
	</g>
</g>
</svg>
